<svg id="圖層_1" data-name="圖層 1" xmlns="http://www.w3.org/2000/svg" viewBox="0 0 281.72 100.87"><defs><style>.cls-1{fill:#fff;}</style></defs><rect class="cls-1" x="95.79" y="54.66" width="71.42" height="4.17"/><polygon class="cls-1" points="114.19 47.98 108.26 50.45 101.56 46.59 92.76 51.68 92.75 61.85 101.56 66.92 108.83 62.71 114.19 65.53 101.56 72.84 87.62 64.79 87.62 48.72 101.56 40.67 114.19 47.98"/><path class="cls-1" d="M150.69,51.19,143,57.82h7.75l7.33-6.41a3.54,3.54,0,0,0,2.43-.71,2.32,2.32,0,0,0,.78-1.83,2.26,2.26,0,0,0-.78-1.82,3.89,3.89,0,0,0-2.6-.7H152.7a3.84,3.84,0,0,0-2.62.71,2.41,2.41,0,0,0-.78,1.87,2.26,2.26,0,0,0,.31,1.22A3.61,3.61,0,0,0,150.69,51.19Z" transform="translate(-14.84 -4.67)"/><path class="cls-1" d="M135.8,51.41h.8v6.41h5.07V51.41h1.83a3.8,3.8,0,0,0,2.6-.71,2.33,2.33,0,0,0,.78-1.84A2.28,2.28,0,0,0,146.1,47a3.89,3.89,0,0,0-2.6-.69l-7.71,0a3.89,3.89,0,0,0-2.63.71,2.35,2.35,0,0,0-.77,1.84,2.39,2.39,0,0,0,.77,1.85A4.09,4.09,0,0,0,135.8,51.41Z" transform="translate(-14.84 -4.67)"/><path class="cls-1" d="M159.06,71.29h-1.37A33.51,33.51,0,0,0,154.51,65H148l0,0A16.65,16.65,0,0,1,151,69.14a73.31,73.31,0,0,1,3.46,7.24H159a3.84,3.84,0,0,0,2.61-.71,2.4,2.4,0,0,0,.76-1.83,2.33,2.33,0,0,0-.78-1.84A3.69,3.69,0,0,0,159.06,71.29Z" transform="translate(-14.84 -4.67)"/><path class="cls-1" d="M143.5,71.29h-1.83V65.65l.76-.64H136.6v6.26h-.8a3.87,3.87,0,0,0-2.6.71,2.53,2.53,0,0,0,0,3.67,3.87,3.87,0,0,0,2.62.71h7.72a3.83,3.83,0,0,0,2.6-.71,2.55,2.55,0,0,0,0-3.67A4,4,0,0,0,143.5,71.29Z" transform="translate(-14.84 -4.67)"/><polygon class="cls-1" points="155.79 53.17 155.79 51.9 164.59 46.81 171.3 50.65 177.24 48.2 164.59 40.89 150.66 48.94 150.66 53.17 155.79 53.17"/><polygon class="cls-1" points="164.59 67.14 155.79 62.07 155.79 60.36 150.66 60.36 150.66 65.01 164.59 73.06 177.24 65.75 171.88 62.93 164.59 67.14"/><path class="cls-1" d="M83.48,45.25l-13.92,8V69.37l13.92,8,13.92-8V53.29Zm8.75,21.13-8.77,5.06L74.7,66.38V56.26l8.76-5,8.77,5Z" transform="translate(-14.84 -4.67)"/><path class="cls-1" d="M15.34,34.7v-30h8.05c3.74,6.74,10.68,18.9,12.06,22.17h.08c-.34-3.13-.33-8.35-.33-13.27V4.67h5.88v30H33.45c-3.23-5.87-10.91-19.84-12.4-23.31H21c.22,2.63.29,8.8.29,14.18V34.7Z" transform="translate(-14.84 -4.67)"/><path class="cls-1" d="M54.65,10H45.53V4.67H70.24V10H61.15V34.7h-6.5Z" transform="translate(-14.84 -4.67)"/><path class="cls-1" d="M81.28,4.67V22.56c0,5.76,3,7.47,6.2,7.47,3.71,0,6-2,6-7.47V4.67H100V22.24c0,10.27-6,12.88-12.63,12.88-6.78,0-12.62-2.73-12.62-12.76V4.67Z" transform="translate(-14.84 -4.67)"/><path class="cls-1" d="M113.45,10h-9.13V4.67H129V10H120V34.7h-6.5Z" transform="translate(-14.84 -4.67)"/><path class="cls-1" d="M15.83,46.86H29.08c7.32,0,10.1,3.81,10.1,7.75a6.92,6.92,0,0,1-3.86,6.58,7.23,7.23,0,0,1,4.73,6.91c0,5.19-4.08,9.08-10.53,9.08H15.83Zm12.49,12c3.12,0,4.41-1.4,4.41-3.53S31,51.92,28.51,51.92H22.26v6.9Zm-6.06,13.3h5.92c3.54,0,5.15-1.49,5.15-4.24,0-2.44-1.58-4-5.19-4H22.26Z" transform="translate(-14.84 -4.67)"/><path class="cls-1" d="M45.16,46.86h6.56v25h15.1l-.75,5.37H45.16Z" transform="translate(-14.84 -4.67)"/><path class="cls-1" d="M194.17,46.86h6.56V58.68h12.2V46.86h6.56V77.18h-6.56V64.06h-12.2V77.18h-6.56Z" transform="translate(-14.84 -4.67)"/><path class="cls-1" d="M232.4,70.17l-2.36,7h-6.45l10.3-30.32h8.23l10.74,30.32H246l-2.49-7Zm9.67-5.37c-2.16-6.4-3.53-10.49-4.26-13.21h0c-.75,3-2.26,7.74-4,13.21Z" transform="translate(-14.84 -4.67)"/><path class="cls-1" d="M263.31,46.86V77.18h-6.55V46.86Z" transform="translate(-14.84 -4.67)"/><path class="cls-1" d="M270.57,77.18V46.86h8.12c3.79,6.8,10.79,19.08,12.18,22.39H291c-.34-3.17-.34-8.43-.34-13.41v-9h5.94V77.18h-7.7c-3.26-5.93-11-20-12.52-23.53h-.08c.22,2.65.29,8.88.29,14.31v9.22Z" transform="translate(-14.84 -4.67)"/><path class="cls-1" d="M20.43,104.38v-3.13l-.26.13q-3.87,2.12-4.49,2.12c-.56,0-.84-.34-.84-1a.75.75,0,0,1,.26-.64,5,5,0,0,1,1.27-.61,38.07,38.07,0,0,0,4.06-1.78v-6H16c-.73,0-1.09-.3-1.09-.9s.36-.9,1.09-.9h4.43V87.17c0-.75.3-1.13.9-1.13s.9.38.9,1.13v17.21c0,.75-.3,1.12-.9,1.12S20.43,105.13,20.43,104.38Zm6.36.37a1.49,1.49,0,0,1-1.16-1.66V87.17c0-.75.3-1.13.92-1.13s.9.38.9,1.13v5.55a37.39,37.39,0,0,0,4.28-2.47,1.84,1.84,0,0,1,1-.41c.68,0,1,.32,1,1a.8.8,0,0,1-.34.57,6.75,6.75,0,0,1-1,.75,49,49,0,0,1-4.92,2.38V102c0,.66.28,1,.82,1.1H30.1q1.65,0,2-.48a4.36,4.36,0,0,0,.32-2,.82.82,0,0,1,.94-.88.88.88,0,0,1,1,1c0,2.24-.52,3.54-1.57,3.91a11.17,11.17,0,0,1-3,.24A17.14,17.14,0,0,1,26.79,104.75Z" transform="translate(-14.84 -4.67)"/><path class="cls-1" d="M46.56,104.62V96.3A19.24,19.24,0,0,1,45,100c-.67,1.25-1.2,1.87-1.59,1.87s-.77-.34-.77-1a2.06,2.06,0,0,1,.49-1,22,22,0,0,0,3.27-6.64H43.68c-.67,0-1-.28-1-.86s.34-.83,1-.83h2.88V88.63c-1.6.19-2.53.28-2.79.28a.77.77,0,0,1-.88-.86.58.58,0,0,1,.35-.55,2.63,2.63,0,0,1,1.06-.24,23.08,23.08,0,0,0,5.46-1,2,2,0,0,1,.56-.13c.56,0,.84.3.84.88s-1,1-2.9,1.34v3.18h2c.66,0,1,.28,1,.86s-.33.83-1,.83h-2v2.26a.6.6,0,0,1,.56-.32,1.14,1.14,0,0,1,.61.32,6.09,6.09,0,0,1,.87.92,4.47,4.47,0,0,1,1,1.64.74.74,0,0,1-.84.83.71.71,0,0,1-.58-.38A14.59,14.59,0,0,0,49,97.29a9,9,0,0,1-.77-1.07v8.4c0,.61-.29.92-.86.92S46.56,105.23,46.56,104.62Zm11.37-.09V99.46l-6.73,1.36a.75.75,0,0,1-.84-.86q0-.69.84-.84l6.73-1.38V86.94c0-.65.28-1,.86-1s.83.32.83,1V97.4l1.4-.3.43,0c.5,0,.75.22.75.79a.82.82,0,0,1-.2.58,1.24,1.24,0,0,1-.64.32l-1.74.39v5.39c0,.63-.28,1-.83,1S57.93,105.16,57.93,104.53Zm-4-9.15a9.77,9.77,0,0,0-1.35-1.09c-.48-.33-.71-.63-.71-.91,0-.53.3-.79.9-.79a2.89,2.89,0,0,1,1.25.62c.51.37,1,.73,1.37,1.08a1.24,1.24,0,0,1,.52.83c0,.59-.31.88-.93.88A1.92,1.92,0,0,1,53.93,95.38Zm.67-5c-.43-.36-1-.78-1.59-1.27a1.09,1.09,0,0,1-.54-.8c0-.54.29-.81.88-.81a4.81,4.81,0,0,1,1.78,1c.91.64,1.36,1.15,1.36,1.52,0,.58-.32.86-1,.86A1.81,1.81,0,0,1,54.6,90.4Z" transform="translate(-14.84 -4.67)"/><path class="cls-1" d="M70.57,104.32a.77.77,0,0,1,.26-.54,3.72,3.72,0,0,1,.83-.54,12.11,12.11,0,0,0,7.2-10.14h-7a1.33,1.33,0,0,1-.83-.21.8.8,0,0,1-.27-.67.75.75,0,0,1,.27-.65,1.33,1.33,0,0,1,.83-.21h7.19c.07-.64.11-2.06.11-4.25,0-.73.29-1.1.88-1.1a.85.85,0,0,1,.71.3,1.27,1.27,0,0,1,.24.8c0,.86,0,2.28-.11,4.25h7.8c.73,0,1.09.29,1.09.86s-.36.88-1.09.88H81.12A14.6,14.6,0,0,0,84,98.82a16.63,16.63,0,0,0,5.22,4.27,1.25,1.25,0,0,1,.8,1.06c0,.7-.32,1-1,1a2.18,2.18,0,0,1-.87-.37c-.42-.24-1.05-.65-1.88-1.22a16.07,16.07,0,0,1-6-8.06,14.2,14.2,0,0,1-6.45,8.73,5.59,5.59,0,0,1-2.34,1C70.87,105.29,70.57,105,70.57,104.32Z" transform="translate(-14.84 -4.67)"/><path class="cls-1" d="M99.8,104.21a2,2,0,0,1-.44-1.57V88.83a2.21,2.21,0,0,1,.5-1.6,1.91,1.91,0,0,1,1.57-.44h15.08q1,0,1,.81c0,.53-.33.8-1,.8H102c-.52,0-.79.28-.82.84v13a.75.75,0,0,0,.82.83h14.89c.67,0,1,.28,1,.82s-.34.8-1,.8H101.43A2.27,2.27,0,0,1,99.8,104.21Zm2.51-3.91V97.83A1.45,1.45,0,0,1,104,96.2h3.35A1.45,1.45,0,0,1,109,97.83v2.47a1.45,1.45,0,0,1-1.64,1.63H104A1.45,1.45,0,0,1,102.31,100.3Zm5.11-.43V98.26q0-.56-.6-.6h-2.36a.55.55,0,0,0-.61.6v1.61a.55.55,0,0,0,.61.62h2.36C107.19,100.49,107.39,100.29,107.42,99.87Zm-3.18-5.21a1.6,1.6,0,0,1-.36-1.28v-2a1.89,1.89,0,0,1,.39-1.33,1.66,1.66,0,0,1,1.28-.37h7.65a1.84,1.84,0,0,1,1.33.41,1.73,1.73,0,0,1,.37,1.31v2a1.82,1.82,0,0,1-.41,1.33,1.61,1.61,0,0,1-1.29.37h-7.65A1.8,1.8,0,0,1,104.24,94.66Zm9-1.71v-1.2a.59.59,0,0,0-.65-.64h-6.42c-.39,0-.59.2-.62.62V93a.58.58,0,0,0,.62.63h6.42C113,93.6,113.17,93.38,113.2,93Zm-3.29,7.35V97.83a1.44,1.44,0,0,1,1.63-1.63h3.57a1.44,1.44,0,0,1,1.61,1.65v2.43a1.44,1.44,0,0,1-1.61,1.65h-3.57A1.44,1.44,0,0,1,109.91,100.3Zm5.24-.43V98.26a.57.57,0,0,0-.15-.44.71.71,0,0,0-.45-.16h-2.49a.53.53,0,0,0-.6.6v1.61a.56.56,0,0,0,.6.62h2.49C115,100.49,115.15,100.29,115.15,99.87Z" transform="translate(-14.84 -4.67)"/><path class="cls-1" d="M126.12,101.22q0-.77,1.29-1l1.37-.34V92.7h-1.57c-.68,0-1-.28-1-.84s.35-.86,1-.86h1.57V87q0-1,.84-1c.57,0,.86.32.86,1v4h1.12c.64,0,1,.29,1,.86s-.32.84-1,.84h-1.12v6.68l.24-.09,1.56-.43a.74.74,0,0,1,.84.84.83.83,0,0,1-.58.82l-1.37.45c-1.15.37-2.09.66-2.84.87a10.25,10.25,0,0,1-1.29.31A.82.82,0,0,1,126.12,101.22Zm3.65,3.25c0-.46.29-.75.86-.86a5.31,5.31,0,0,0,3.44-2,8.11,8.11,0,0,0,1.2-4.53H135a1.71,1.71,0,0,1-1.91-2v-5a1.75,1.75,0,0,1,1.91-2h1.89l.43-1.55a1,1,0,0,1,.36-.58,1,1,0,0,1,.61-.19,1.11,1.11,0,0,1,.67.2.63.63,0,0,1,.27.51.59.59,0,0,1,0,.21,12.22,12.22,0,0,1-.6,1.4h4.17a1.73,1.73,0,0,1,1.93,2v5a1.72,1.72,0,0,1-1.93,2H140v5.56a.64.64,0,0,0,.56.73,11.74,11.74,0,0,0,1.65.09,4.81,4.81,0,0,0,1.46-.15c.13-.05.25-.34.37-.88s.38-.76.79-.76q.93,0,.93.84a2.68,2.68,0,0,1-.61,1.94,4,4,0,0,1-2.62.58,10.35,10.35,0,0,1-3.46-.33,1.36,1.36,0,0,1-.66-1.26V97.06h-1.57a15.1,15.1,0,0,1-.8,4.36,6,6,0,0,1-2.34,2.81,5.51,5.51,0,0,1-3,1.16A.81.81,0,0,1,129.77,104.47Zm8.12-14.83h-2.55a.67.67,0,0,0-.5.19.72.72,0,0,0-.17.5v1.55h3.22Zm0,3.61h-3.22v1.64a.61.61,0,0,0,.67.68h2.55ZM143,90.33q0-.64-.69-.69H139.5v2.24H143Zm0,4.56V93.25H139.5v2.32h2.84A.63.63,0,0,0,143,94.89Zm-2.19,6.51c-.43,0-.65-.25-.65-.76s.29-.66.88-.7l.41-2a.66.66,0,0,1,.69-.6q.66,0,.66.6a5.66,5.66,0,0,1-.47,1.57l-.11.3,1.7-.15-.28-.67-.06-.28a.35.35,0,0,1,.1-.36.63.63,0,0,1,.43-.13.53.53,0,0,1,.52.32,10.69,10.69,0,0,1,1,2.15c0,.39-.21.58-.63.58s-.54-.21-.68-.64a30.34,30.34,0,0,1-3.27.71Z" transform="translate(-14.84 -4.67)"/><path class="cls-1" d="M160.67,103.35c-.48.16-1.23.35-2.23.58l-2.58.5-.79.1a.64.64,0,0,1-.58-.18.85.85,0,0,1-.22-.63c0-.53.34-.85,1-1l1.81-.24V96.39h-1.7c-.63,0-.95-.26-.95-.77s.32-.8.95-.8h1.7V93.06h-.78c-.61,0-.92-.26-.92-.77a.93.93,0,0,1,.08-.41c-.35.36-.63.54-.81.54-.5,0-.75-.3-.75-.88,0-.28.32-.77,1-1.49A12.82,12.82,0,0,0,157,86.53c.21-.49.5-.73.86-.73a.88.88,0,0,1,.63.22.79.79,0,0,1,.25.62,1.87,1.87,0,0,1-.17.51A26.73,26.73,0,0,1,160.8,89c.49.47.73.83.73,1.07a.72.72,0,0,1-.83.8,1,1,0,0,1-.8-.52,8.91,8.91,0,0,0-.61-.65l-.61-.61-.46-.43L158,88.4v0l-.2.34a15.16,15.16,0,0,1-1.93,2.82l-.11.1a1.33,1.33,0,0,1,.6-.13h3.46c.63,0,.95.26.95.78s-.32.77-.95.77h-1.18v1.76h1.53a1.06,1.06,0,0,1,.7.21.68.68,0,0,1,.26.59.66.66,0,0,1-.26.58,1.12,1.12,0,0,1-.7.19h-1.53v5.89l1.8-.32a.52.52,0,0,1,.51.12.77.77,0,0,1,.18.54C161.08,103,161,103.25,160.67,103.35Zm-5.07-1.89a.62.62,0,0,1-.49-.2.84.84,0,0,1-.17-.57V98.15a.84.84,0,0,1,.17-.57.62.62,0,0,1,.49-.2.64.64,0,0,1,.5.2.9.9,0,0,1,.17.57v2.54C156.27,101.2,156.05,101.46,155.6,101.46Zm4-3.88a.62.62,0,0,1,.49-.2.6.6,0,0,1,.49.2.85.85,0,0,1,.18.57v2.28a.85.85,0,0,1-.18.57.58.58,0,0,1-.49.2.59.59,0,0,1-.49-.2.85.85,0,0,1-.18-.57V98.15A.85.85,0,0,1,159.56,97.58Zm14.05,6.52c0,.61-.33.91-1,.91l-1.12,0a29,29,0,0,1-5.07-.38,4.18,4.18,0,0,1-2.68-1.76c-1.28,1.47-2.22,2.21-2.84,2.21s-.77-.27-.77-.82c0-.36.3-.69.9-1a10.87,10.87,0,0,0,1.72-1.22V97.66c0-.4-.17-.6-.5-.6h-.51c-.42,0-.63-.27-.63-.8s.23-.84.69-.84h.9c1,0,1.57.55,1.57,1.64v4.16a4.56,4.56,0,0,0,.78,1.1,5.32,5.32,0,0,0,3.54,1l4,0C173.27,103.24,173.61,103.53,173.61,104.1ZM163.38,91.88c.62.4.92.74.92,1a.76.76,0,0,1-.85.86,1.94,1.94,0,0,1-.69-.26l-.43-.28c-.75-.48-1.12-.88-1.12-1.18q0-.75.84-.75A2.82,2.82,0,0,1,163.38,91.88Zm-1.87-4.49c0-.52.28-.77.84-.77a2.85,2.85,0,0,1,1.27.58,2.93,2.93,0,0,1,.66.56.88.88,0,0,1,.24.53.78.78,0,0,1-.23.61.89.89,0,0,1-.63.21,3.59,3.59,0,0,1-1.18-.65C161.83,88,161.51,87.68,161.51,87.39Zm6.73,11.45V97.49h-1.51a1.46,1.46,0,0,1-1.61-1.64V92.18a1.44,1.44,0,0,1,1.61-1.65h1.51V89.34h-2.62a.94.94,0,0,1-.64-.19.72.72,0,0,1-.22-.58c0-.5.28-.75.86-.75h2.62V86.64c0-.53.24-.8.73-.8s.73.27.73.8v1.18h2.85c.58,0,.86.26.86.77a.69.69,0,0,1-.22.56.94.94,0,0,1-.64.19H169.7v1.19h1.59a1.63,1.63,0,0,1,1.2.41,1.73,1.73,0,0,1,.41,1.24v3.67a1.69,1.69,0,0,1-.4,1.22,1.54,1.54,0,0,1-1.17.42H169.7v1.35h3a1,1,0,0,1,.64.19.71.71,0,0,1,.24.58.7.7,0,0,1-.24.58,1,1,0,0,1-.64.2h-3v1.82c0,.55-.25.82-.73.82s-.73-.27-.73-.82v-1.82h-2.78a1,1,0,0,1-.64-.2.7.7,0,0,1-.24-.58.71.71,0,0,1,.24-.58,1,1,0,0,1,.64-.19Zm-1.66-5.52h1.66v-1.4H167.1a.55.55,0,0,0-.39.11.66.66,0,0,0-.13.39Zm1.66,2.79V94.63h-1.66v1a.49.49,0,0,0,.12.38.55.55,0,0,0,.4.11Zm1.46-2.79h1.69v-.9a.51.51,0,0,0-.12-.38.61.61,0,0,0-.41-.12H169.7Zm0,2.79h1.16a.52.52,0,0,0,.39-.11.54.54,0,0,0,.14-.38v-1H169.7Z" transform="translate(-14.84 -4.67)"/><path class="cls-1" d="M184.27,103a1.57,1.57,0,0,1-.36-1.32V97.1c-.58,1.25-1,1.87-1.4,1.87s-.73-.32-.73-1a1.73,1.73,0,0,1,.32-.88,19.71,19.71,0,0,0,2.77-8.31H183c-.7,0-1.05-.27-1.05-.82s.35-.88,1.05-.88h5.59c.7,0,1,.29,1,.88s-.35.82-1,.82h-2a39.31,39.31,0,0,1-1.31,4.88h2.09a1.94,1.94,0,0,1,1.39.41,1.62,1.62,0,0,1,.37,1.33v6.27a1.87,1.87,0,0,1-.42,1.35,1.68,1.68,0,0,1-1.34.39h-1.72A1.93,1.93,0,0,1,184.27,103Zm3.29-1.82V95.9a.55.55,0,0,0-.62-.61h-1.06a.42.42,0,0,0-.45.43v5.5c0,.41.22.62.65.65h.86C187.32,101.87,187.53,101.65,187.56,101.22Zm9.65,3.14V95.88h-3.38a15.13,15.13,0,0,1-1.67,6.78c-.94,1.64-1.74,2.45-2.43,2.45s-.84-.31-.84-.94a1.43,1.43,0,0,1,.56-.93q2.55-2.53,2.81-7.36h-1.95a.82.82,0,0,1-.6-.2.84.84,0,0,1-.2-.62.71.71,0,0,1,.8-.82h2V88.76h-1.46a.71.71,0,0,1-.8-.81.7.7,0,0,1,.8-.82h9.52a.71.71,0,0,1,.81.84.71.71,0,0,1-.81.79h-1.59v5.48h1.72a.82.82,0,0,1,0,1.64h-1.72v8.48c0,.67-.28,1-.82,1S197.21,105,197.21,104.36Zm0-15.6H194v1.36c0,1.33,0,2.65-.06,4v.15h3.29Z" transform="translate(-14.84 -4.67)"/><path class="cls-1" d="M210,104.3c0-.4.26-.67.78-.8a9.3,9.3,0,0,0,4.23-2,6.18,6.18,0,0,0,1.85-3.57H212c-.51,0-.77-.27-.77-.81s.31-.78.93-.78H217c.05-.68.08-1.25.08-1.69a.89.89,0,0,1,.23-.63.85.85,0,0,1,.63-.23.76.76,0,0,1,.86.86,15.14,15.14,0,0,1-.08,1.67h3.71a1.52,1.52,0,0,1,1.17.43,1.74,1.74,0,0,1,.4,1.23v4.44a1.55,1.55,0,0,0,.11.68.6.6,0,0,0,.44.28,5.56,5.56,0,0,0,1.11.08,3,3,0,0,0,1.28-.19.88.88,0,0,0,.47-.65,11.44,11.44,0,0,0,.11-1.72.77.77,0,0,1,.86-.84.75.75,0,0,1,.6.24,1,1,0,0,1,.2.64,13.4,13.4,0,0,1-.11,2.27,2.39,2.39,0,0,1-.43,1.11,3.39,3.39,0,0,1-2.4.66h-.73a10.54,10.54,0,0,1-1.93-.13,1.76,1.76,0,0,1-1-.5,1.62,1.62,0,0,1-.34-1.13V98.41a.6.6,0,0,0-.14-.41.54.54,0,0,0-.4-.15h-3.14a8.55,8.55,0,0,1-1.5,3.87,8.25,8.25,0,0,1-3.24,2.51,8.06,8.06,0,0,1-3,.9C210.22,105.13,210,104.86,210,104.3ZM212,94.69a.79.79,0,0,1,0-1,1.42,1.42,0,0,1,.64-.29,4.2,4.2,0,0,0,2.88-1.8,3,3,0,0,0,.36-1,7.44,7.44,0,0,0,.18-1.15h-3.42a.74.74,0,0,0-.84.86V92c0,.73-.3,1.09-.9,1.09s-.9-.36-.9-1.09V89.82a1.73,1.73,0,0,1,2-2h6.34v-1c0-.63.33-.94,1-.94a.83.83,0,0,1,.94.94v1h6.58a1.73,1.73,0,0,1,1.95,2V91.9c0,.72-.3,1.07-.9,1.07s-.88-.35-.88-1.07V90.31a.75.75,0,0,0-.86-.86h-4.3V92.2a1.24,1.24,0,0,0,.1.56.53.53,0,0,0,.39.23,6.51,6.51,0,0,0,.93.05A5.07,5.07,0,0,0,224.4,93a.65.65,0,0,0,.47-.29A1.46,1.46,0,0,0,225,92a.76.76,0,0,1,.23-.52.81.81,0,0,1,.59-.19.7.7,0,0,1,.54.21.85.85,0,0,1,.19.58,3.31,3.31,0,0,1-.29,1.58,1.32,1.32,0,0,1-.94.64,12.57,12.57,0,0,1-2.23.17,9.41,9.41,0,0,1-1.27-.07,2.4,2.4,0,0,1-1.31-.42,1.53,1.53,0,0,1-.34-1.17V89.45h-2.41a7,7,0,0,1-.79,2.9,5.87,5.87,0,0,1-4.41,2.54A.7.7,0,0,1,212,94.69Z" transform="translate(-14.84 -4.67)"/><path class="cls-1" d="M239.54,95.19v2.43a20.82,20.82,0,0,1-.36,4.49q-.37,1.5-1.05,1.5a.79.79,0,0,1-.56-.19.77.77,0,0,1-.2-.56,2.39,2.39,0,0,1,.22-.82c.34-.87.51-2.93.49-6.19v-1c0-.64.24-1,.71-1S239.54,94.31,239.54,95.19Zm2.78-2.82v12.34c0,.55-.26.83-.78.83s-.77-.28-.77-.83V92.37H238.6c-.69,0-1-.27-1-.81s.34-.8,1-.8h6.08c.64,0,1,.27,1,.8s-.33.81-1,.81Zm-4-4.75c0-.55.32-.83,1-.83h4.79c.61,0,.92.28.92.83s-.31.86-.92.86h-4.79C238.64,88.48,238.32,88.2,238.32,87.62Zm5.89,14.66c-.49,0-.73-.27-.73-.82V94.71c0-.55.24-.83.73-.83s.75.28.75.83v6.75C245,102,244.71,102.28,244.21,102.28Zm12.87,1.39c0,.62-.38.93-1.12.93H245.17q-1.14,0-1.14-.93c0-.61.38-.92,1.14-.92H250V93.88H246.4c-.73,0-1.1-.31-1.1-.93s.37-.9,1.1-.9H250V87c0-.71.3-1.07.92-1.07s.92.36.92,1.07v5h3.48c.74,0,1.1.3,1.1.9s-.36.93-1.1.93h-3.48v8.87H256C256.7,102.75,257.08,103.06,257.08,103.67Z" transform="translate(-14.84 -4.67)"/></svg>